<svg width="512" height="512" viewBox="0 0 512 512" fill="none" xmlns="http://www.w3.org/2000/svg">
    <path d="M256 512C397.385 512 512 397.385 512 256C512 114.615 397.385 0 256 0C114.615 0 0 114.615 0 256C0 397.385 114.615 512 256 512Z" fill="url(#paint0_linear)"/>
    <path d="M256 469.334C138.368 469.334 42.6666 373.632 42.6666 256.001C42.6666 138.369 138.368 42.6672 256 42.6672C373.636 42.6672 469.333 138.369 469.333 256.001C469.333 373.632 373.636 469.334 256 469.334Z" fill="url(#paint1_linear)"/>
    <path opacity="0.3" d="M384 246.874V144H144V246.874H174.724V281.126H144V383.999H384V281.126H353.281V246.874H384ZM310.305 170.874C323.871 170.874 334.868 181.871 334.868 195.436C334.868 209.003 323.871 219.999 310.305 219.999C296.739 219.999 285.742 209.003 285.742 195.436C285.742 181.871 296.739 170.874 310.305 170.874ZM169.861 176.988H238.914V186.988H169.861V176.988ZM169.861 213.887V203.887H238.914V213.887H169.861ZM238.914 351.011H169.861V341.011H238.914V351.011ZM238.914 324.112H169.861V314.112H238.914V324.112ZM310.305 357.126C296.739 357.126 285.742 346.129 285.742 332.563C285.742 318.997 296.739 308 310.305 308C323.871 308 334.868 318.997 334.868 332.563C334.868 346.129 323.871 357.126 310.305 357.126ZM343.281 281.126H184.724V246.874H343.281V281.126Z" fill="black"/>
    <path d="M376 238.874V136H136V238.874H166.724V273.126H136V375.999H376V273.126H345.281V238.874H376ZM302.305 162.874C315.871 162.874 326.868 173.871 326.868 187.436C326.868 201.003 315.871 211.999 302.305 211.999C288.739 211.999 277.742 201.003 277.742 187.436C277.742 173.871 288.739 162.874 302.305 162.874ZM161.861 168.988H230.914V178.988H161.861V168.988ZM161.861 205.887V195.887H230.914V205.887H161.861ZM230.914 343.011H161.861V333.011H230.914V343.011ZM230.914 316.112H161.861V306.112H230.914V316.112ZM302.305 349.126C288.739 349.126 277.742 338.129 277.742 324.563C277.742 310.997 288.739 300 302.305 300C315.871 300 326.868 310.997 326.868 324.563C326.868 338.129 315.871 349.126 302.305 349.126ZM335.281 273.126H176.724V238.874H335.281V273.126Z" fill="white"/>
    <defs>
        <linearGradient id="paint0_linear" x1="3.8e-06" y1="256" x2="512" y2="256" gradientUnits="userSpaceOnUse">
            <stop stop-color="#26A6F3"/>
            <stop offset="1" stop-color="#47B8F5"/>
        </linearGradient>
        <linearGradient id="paint1_linear" x1="42.6666" y1="256.001" x2="469.333" y2="256.001" gradientUnits="userSpaceOnUse">
            <stop stop-color="#47B8F5"/>
            <stop offset="1" stop-color="#094289"/>
        </linearGradient>
    </defs>
</svg>
